<?xml version="1.0" encoding="utf-8"?>
<!-- Generator: Adobe Illustrator 23.0.2, SVG Export Plug-In . SVG Version: 6.00 Build 0)  -->
<svg version="1.1" id="Layer_1" xmlns="http://www.w3.org/2000/svg" xmlns:xlink="http://www.w3.org/1999/xlink" x="0px" y="0px"
	 viewBox="0 0 773.6 292.1" style="enable-background:new 0 0 773.6 292.1;" xml:space="preserve">
<style type="text/css">
	.st0{fill:none;stroke:#000000;stroke-miterlimit:10;}
</style>
<title>Mk3 Laser</title>
<g id="Shell">
	<rect x="16.4" y="209.1" class="st0" width="610.7" height="83.1"/>
	<line class="st0" x1="19.3" y1="285.7" x2="19.3" y2="213.6"/>
	<line class="st0" x1="26.4" y1="285.7" x2="26.4" y2="213.6"/>
	<line class="st0" x1="29.9" y1="245.9" x2="29.9" y2="209.1"/>
	<line class="st0" x1="22.8" y1="245.9" x2="22.8" y2="209.1"/>
	<line class="st0" x1="29.9" y1="291.9" x2="29.9" y2="254.9"/>
	<line class="st0" x1="22.8" y1="291.9" x2="22.8" y2="254.9"/>
	<line class="st0" x1="54.7" y1="285.7" x2="54.7" y2="213.6"/>
	<line class="st0" x1="47.6" y1="285.7" x2="47.6" y2="213.6"/>
	<line class="st0" x1="40.5" y1="285.7" x2="40.5" y2="213.6"/>
	<line class="st0" x1="61.8" y1="285.7" x2="61.8" y2="213.6"/>
	<line class="st0" x1="33.5" y1="285.7" x2="33.5" y2="213.6"/>
	<line class="st0" x1="51.2" y1="245.9" x2="51.2" y2="209.1"/>
	<line class="st0" x1="44.1" y1="245.9" x2="44.1" y2="209.1"/>
	<line class="st0" x1="65.3" y1="245.9" x2="65.3" y2="209.1"/>
	<line class="st0" x1="58.2" y1="245.9" x2="58.2" y2="209.1"/>
	<line class="st0" x1="37" y1="245.9" x2="37" y2="209.1"/>
	<line class="st0" x1="51.2" y1="291.9" x2="51.2" y2="254.9"/>
	<line class="st0" x1="44.1" y1="291.9" x2="44.1" y2="254.9"/>
	<line class="st0" x1="65.3" y1="291.9" x2="65.3" y2="254.9"/>
	<line class="st0" x1="58.2" y1="291.9" x2="58.2" y2="254.9"/>
	<line class="st0" x1="37" y1="291.9" x2="37" y2="254.9"/>
	<line class="st0" x1="75.9" y1="285.7" x2="75.9" y2="213.6"/>
	<line class="st0" x1="68.8" y1="285.7" x2="68.8" y2="213.6"/>
	<line class="st0" x1="79.5" y1="245.9" x2="79.5" y2="209.1"/>
	<line class="st0" x1="72.4" y1="245.9" x2="72.4" y2="209.1"/>
	<line class="st0" x1="79.5" y1="291.9" x2="79.5" y2="254.9"/>
	<line class="st0" x1="72.4" y1="291.9" x2="72.4" y2="254.9"/>
	<line class="st0" x1="111.3" y1="285.7" x2="111.3" y2="213.6"/>
	<line class="st0" x1="104.2" y1="285.7" x2="104.2" y2="213.6"/>
	<line class="st0" x1="97.2" y1="285.7" x2="97.2" y2="213.6"/>
	<line class="st0" x1="118.4" y1="285.7" x2="118.4" y2="213.6"/>
	<line class="st0" x1="90.1" y1="285.7" x2="90.1" y2="213.6"/>
	<line class="st0" x1="107.8" y1="245.9" x2="107.8" y2="209.1"/>
	<line class="st0" x1="100.7" y1="245.9" x2="100.7" y2="209.1"/>
	<line class="st0" x1="114.9" y1="245.9" x2="114.9" y2="209.1"/>
	<line class="st0" x1="93.6" y1="245.9" x2="93.6" y2="209.1"/>
	<line class="st0" x1="86.6" y1="246.2" x2="86.6" y2="209.3"/>
	<line class="st0" x1="83" y1="285.7" x2="83" y2="213.6"/>
	<line class="st0" x1="107.8" y1="291.9" x2="107.8" y2="254.9"/>
	<line class="st0" x1="100.7" y1="291.9" x2="100.7" y2="254.9"/>
	<line class="st0" x1="114.9" y1="291.9" x2="114.9" y2="254.9"/>
	<line class="st0" x1="93.6" y1="291.9" x2="93.6" y2="254.9"/>
	<line class="st0" x1="86.6" y1="292.1" x2="86.6" y2="255.2"/>
	<line class="st0" x1="125.5" y1="285.7" x2="125.5" y2="213.6"/>
	<line class="st0" x1="129" y1="245.9" x2="129" y2="209.1"/>
	<line class="st0" x1="121.9" y1="245.9" x2="121.9" y2="209.1"/>
	<line class="st0" x1="129" y1="291.9" x2="129" y2="254.9"/>
	<line class="st0" x1="121.9" y1="291.9" x2="121.9" y2="254.9"/>
	<line class="st0" x1="153.8" y1="285.7" x2="153.8" y2="213.6"/>
	<line class="st0" x1="146.7" y1="285.7" x2="146.7" y2="213.6"/>
	<line class="st0" x1="139.6" y1="285.7" x2="139.6" y2="213.6"/>
	<line class="st0" x1="160.9" y1="285.7" x2="160.9" y2="213.6"/>
	<line class="st0" x1="132.6" y1="285.7" x2="132.6" y2="213.6"/>
	<line class="st0" x1="150.3" y1="245.9" x2="150.3" y2="209.1"/>
	<line class="st0" x1="143.2" y1="245.9" x2="143.2" y2="209.1"/>
	<line class="st0" x1="164.4" y1="245.9" x2="164.4" y2="209.1"/>
	<line class="st0" x1="157.3" y1="245.9" x2="157.3" y2="209.1"/>
	<line class="st0" x1="136.1" y1="245.9" x2="136.1" y2="209.1"/>
	<line class="st0" x1="150.3" y1="291.9" x2="150.3" y2="254.9"/>
	<line class="st0" x1="143.2" y1="291.9" x2="143.2" y2="254.9"/>
	<line class="st0" x1="164.4" y1="291.9" x2="164.4" y2="254.9"/>
	<line class="st0" x1="157.3" y1="291.9" x2="157.3" y2="254.9"/>
	<line class="st0" x1="136.1" y1="291.9" x2="136.1" y2="254.9"/>
	<line class="st0" x1="175" y1="285.7" x2="175" y2="213.6"/>
	<line class="st0" x1="168" y1="285.7" x2="168" y2="213.6"/>
	<line class="st0" x1="178.6" y1="245.9" x2="178.6" y2="209.1"/>
	<line class="st0" x1="171.5" y1="245.9" x2="171.5" y2="209.1"/>
	<line class="st0" x1="178.6" y1="291.9" x2="178.6" y2="254.9"/>
	<line class="st0" x1="171.5" y1="291.9" x2="171.5" y2="254.9"/>
	<line class="st0" x1="210.4" y1="285.7" x2="210.4" y2="213.6"/>
	<line class="st0" x1="203.4" y1="285.7" x2="203.4" y2="213.6"/>
	<line class="st0" x1="196.3" y1="285.7" x2="196.3" y2="213.6"/>
	<line class="st0" x1="217.5" y1="285.7" x2="217.5" y2="213.6"/>
	<line class="st0" x1="189.2" y1="285.7" x2="189.2" y2="213.6"/>
	<line class="st0" x1="206.9" y1="245.9" x2="206.9" y2="209.1"/>
	<line class="st0" x1="199.8" y1="245.9" x2="199.8" y2="209.1"/>
	<line class="st0" x1="214" y1="245.9" x2="214" y2="209.1"/>
	<line class="st0" x1="192.7" y1="245.9" x2="192.7" y2="209.1"/>
	<line class="st0" x1="185.6" y1="246.2" x2="185.6" y2="209.3"/>
	<line class="st0" x1="182.1" y1="285.7" x2="182.1" y2="213.6"/>
	<line class="st0" x1="206.9" y1="291.9" x2="206.9" y2="254.9"/>
	<line class="st0" x1="199.8" y1="291.9" x2="199.8" y2="254.9"/>
	<line class="st0" x1="214" y1="291.9" x2="214" y2="254.9"/>
	<line class="st0" x1="192.7" y1="291.9" x2="192.7" y2="254.9"/>
	<line class="st0" x1="185.6" y1="292.1" x2="185.6" y2="255.2"/>
	<line class="st0" x1="224.6" y1="285.7" x2="224.6" y2="213.6"/>
	<line class="st0" x1="228.1" y1="245.9" x2="228.1" y2="209.1"/>
	<line class="st0" x1="221.1" y1="245.9" x2="221.1" y2="209.1"/>
	<line class="st0" x1="228.1" y1="291.9" x2="228.1" y2="254.9"/>
	<line class="st0" x1="221.1" y1="291.9" x2="221.1" y2="254.9"/>
	<line class="st0" x1="252.9" y1="285.7" x2="252.9" y2="213.6"/>
	<line class="st0" x1="245.8" y1="285.7" x2="245.8" y2="213.6"/>
	<line class="st0" x1="238.7" y1="285.7" x2="238.7" y2="213.6"/>
	<line class="st0" x1="260" y1="285.7" x2="260" y2="213.6"/>
	<line class="st0" x1="231.7" y1="285.7" x2="231.7" y2="213.6"/>
	<line class="st0" x1="249.4" y1="245.9" x2="249.4" y2="209.1"/>
	<line class="st0" x1="242.3" y1="245.9" x2="242.3" y2="209.1"/>
	<line class="st0" x1="263.5" y1="245.9" x2="263.5" y2="209.1"/>
	<line class="st0" x1="256.4" y1="245.9" x2="256.4" y2="209.1"/>
	<line class="st0" x1="235.2" y1="245.9" x2="235.2" y2="209.1"/>
	<line class="st0" x1="249.4" y1="291.9" x2="249.4" y2="254.9"/>
	<line class="st0" x1="242.3" y1="291.9" x2="242.3" y2="254.9"/>
	<line class="st0" x1="263.5" y1="291.9" x2="263.5" y2="254.9"/>
	<line class="st0" x1="256.4" y1="291.9" x2="256.4" y2="254.9"/>
	<line class="st0" x1="235.2" y1="291.9" x2="235.2" y2="254.9"/>
	<line class="st0" x1="274.1" y1="285.7" x2="274.1" y2="213.6"/>
	<line class="st0" x1="267.1" y1="285.7" x2="267.1" y2="213.6"/>
	<line class="st0" x1="277.7" y1="245.9" x2="277.7" y2="209.1"/>
	<line class="st0" x1="270.6" y1="245.9" x2="270.6" y2="209.1"/>
	<line class="st0" x1="277.7" y1="291.9" x2="277.7" y2="254.9"/>
	<line class="st0" x1="270.6" y1="291.9" x2="270.6" y2="254.9"/>
	<line class="st0" x1="309.5" y1="285.7" x2="309.5" y2="213.6"/>
	<line class="st0" x1="302.5" y1="285.7" x2="302.5" y2="213.6"/>
	<line class="st0" x1="295.4" y1="285.7" x2="295.4" y2="213.6"/>
	<line class="st0" x1="316.6" y1="285.7" x2="316.6" y2="213.6"/>
	<line class="st0" x1="288.3" y1="285.7" x2="288.3" y2="213.6"/>
	<line class="st0" x1="306" y1="245.9" x2="306" y2="209.1"/>
	<line class="st0" x1="298.9" y1="245.9" x2="298.9" y2="209.1"/>
	<line class="st0" x1="313.1" y1="245.9" x2="313.1" y2="209.1"/>
	<line class="st0" x1="291.8" y1="245.9" x2="291.8" y2="209.1"/>
	<line class="st0" x1="284.8" y1="246.2" x2="284.8" y2="209.3"/>
	<line class="st0" x1="281.2" y1="285.7" x2="281.2" y2="213.6"/>
	<line class="st0" x1="306" y1="291.9" x2="306" y2="254.9"/>
	<line class="st0" x1="298.9" y1="291.9" x2="298.9" y2="254.9"/>
	<line class="st0" x1="313.1" y1="291.9" x2="313.1" y2="254.9"/>
	<line class="st0" x1="291.8" y1="291.9" x2="291.8" y2="254.9"/>
	<line class="st0" x1="284.8" y1="292.1" x2="284.8" y2="255.2"/>
	<line class="st0" x1="323.7" y1="285.7" x2="323.7" y2="213.6"/>
	<line class="st0" x1="327.2" y1="245.9" x2="327.2" y2="209.1"/>
	<line class="st0" x1="320.1" y1="245.9" x2="320.1" y2="209.1"/>
	<line class="st0" x1="327.2" y1="291.9" x2="327.2" y2="254.9"/>
	<line class="st0" x1="320.1" y1="291.9" x2="320.1" y2="254.9"/>
	<line class="st0" x1="352" y1="285.7" x2="352" y2="213.6"/>
	<line class="st0" x1="344.9" y1="285.7" x2="344.9" y2="213.6"/>
	<line class="st0" x1="337.8" y1="285.7" x2="337.8" y2="213.6"/>
	<line class="st0" x1="359.1" y1="285.7" x2="359.1" y2="213.6"/>
	<line class="st0" x1="330.8" y1="285.7" x2="330.8" y2="213.6"/>
	<line class="st0" x1="348.5" y1="245.9" x2="348.5" y2="209.1"/>
	<line class="st0" x1="341.4" y1="245.9" x2="341.4" y2="209.1"/>
	<line class="st0" x1="362.6" y1="245.9" x2="362.6" y2="209.1"/>
	<line class="st0" x1="355.5" y1="245.9" x2="355.5" y2="209.1"/>
	<line class="st0" x1="334.3" y1="245.9" x2="334.3" y2="209.1"/>
	<line class="st0" x1="348.5" y1="291.9" x2="348.5" y2="254.9"/>
	<line class="st0" x1="341.4" y1="291.9" x2="341.4" y2="254.9"/>
	<line class="st0" x1="362.6" y1="291.9" x2="362.6" y2="254.9"/>
	<line class="st0" x1="355.5" y1="291.9" x2="355.5" y2="254.9"/>
	<line class="st0" x1="334.3" y1="291.9" x2="334.3" y2="254.9"/>
	<line class="st0" x1="373.2" y1="285.7" x2="373.2" y2="213.6"/>
	<line class="st0" x1="366.2" y1="285.7" x2="366.2" y2="213.6"/>
	<line class="st0" x1="376.8" y1="245.9" x2="376.8" y2="209.1"/>
	<line class="st0" x1="369.7" y1="245.9" x2="369.7" y2="209.1"/>
	<line class="st0" x1="376.8" y1="291.9" x2="376.8" y2="254.9"/>
	<line class="st0" x1="369.7" y1="291.9" x2="369.7" y2="254.9"/>
	<line class="st0" x1="408.6" y1="285.7" x2="408.6" y2="213.6"/>
	<line class="st0" x1="401.5" y1="285.7" x2="401.5" y2="213.6"/>
	<line class="st0" x1="394.5" y1="285.7" x2="394.5" y2="213.6"/>
	<line class="st0" x1="415.7" y1="285.7" x2="415.7" y2="213.6"/>
	<line class="st0" x1="387.4" y1="285.7" x2="387.4" y2="213.6"/>
	<line class="st0" x1="405.1" y1="245.9" x2="405.1" y2="209.1"/>
	<line class="st0" x1="398" y1="245.9" x2="398" y2="209.1"/>
	<line class="st0" x1="412.2" y1="245.9" x2="412.2" y2="209.1"/>
	<line class="st0" x1="390.9" y1="245.9" x2="390.9" y2="209.1"/>
	<line class="st0" x1="383.9" y1="246.2" x2="383.9" y2="209.3"/>
	<line class="st0" x1="380.3" y1="285.7" x2="380.3" y2="213.6"/>
	<line class="st0" x1="405.1" y1="291.9" x2="405.1" y2="254.9"/>
	<line class="st0" x1="398" y1="291.9" x2="398" y2="254.9"/>
	<line class="st0" x1="412.2" y1="291.9" x2="412.2" y2="254.9"/>
	<line class="st0" x1="390.9" y1="291.9" x2="390.9" y2="254.9"/>
	<line class="st0" x1="383.9" y1="292.1" x2="383.9" y2="255.2"/>
	<line class="st0" x1="422.8" y1="285.7" x2="422.8" y2="213.6"/>
	<line class="st0" x1="426.3" y1="245.9" x2="426.3" y2="209.1"/>
	<line class="st0" x1="419.2" y1="245.9" x2="419.2" y2="209.1"/>
	<line class="st0" x1="426.3" y1="291.9" x2="426.3" y2="254.9"/>
	<line class="st0" x1="419.2" y1="291.9" x2="419.2" y2="254.9"/>
	<line class="st0" x1="451.1" y1="285.7" x2="451.1" y2="213.6"/>
	<line class="st0" x1="444" y1="285.7" x2="444" y2="213.6"/>
	<line class="st0" x1="437" y1="285.7" x2="437" y2="213.6"/>
	<line class="st0" x1="458.2" y1="285.7" x2="458.2" y2="213.6"/>
	<line class="st0" x1="429.9" y1="285.7" x2="429.9" y2="213.6"/>
	<line class="st0" x1="447.6" y1="245.9" x2="447.6" y2="209.1"/>
	<line class="st0" x1="440.5" y1="245.9" x2="440.5" y2="209.1"/>
	<line class="st0" x1="461.7" y1="245.9" x2="461.7" y2="209.1"/>
	<line class="st0" x1="454.6" y1="245.9" x2="454.6" y2="209.1"/>
	<line class="st0" x1="433.4" y1="245.9" x2="433.4" y2="209.1"/>
	<line class="st0" x1="447.6" y1="291.9" x2="447.6" y2="254.9"/>
	<line class="st0" x1="440.5" y1="291.9" x2="440.5" y2="254.9"/>
	<line class="st0" x1="461.7" y1="291.9" x2="461.7" y2="254.9"/>
	<line class="st0" x1="454.6" y1="291.9" x2="454.6" y2="254.9"/>
	<line class="st0" x1="433.4" y1="291.9" x2="433.4" y2="254.9"/>
	<line class="st0" x1="472.3" y1="285.7" x2="472.3" y2="213.6"/>
	<line class="st0" x1="465.3" y1="285.7" x2="465.3" y2="213.6"/>
	<line class="st0" x1="475.9" y1="245.9" x2="475.9" y2="209.1"/>
	<line class="st0" x1="468.8" y1="245.9" x2="468.8" y2="209.1"/>
	<line class="st0" x1="475.9" y1="291.9" x2="475.9" y2="254.9"/>
	<line class="st0" x1="468.8" y1="291.9" x2="468.8" y2="254.9"/>
	<line class="st0" x1="507.7" y1="285.7" x2="507.7" y2="213.6"/>
	<line class="st0" x1="500.6" y1="285.7" x2="500.6" y2="213.6"/>
	<line class="st0" x1="493.6" y1="285.7" x2="493.6" y2="213.6"/>
	<line class="st0" x1="486.5" y1="285.7" x2="486.5" y2="213.6"/>
	<line class="st0" x1="504.2" y1="245.9" x2="504.2" y2="209.1"/>
	<line class="st0" x1="497.1" y1="245.9" x2="497.1" y2="209.1"/>
	<line class="st0" x1="511.3" y1="245.9" x2="511.3" y2="209.1"/>
	<line class="st0" x1="490" y1="245.9" x2="490" y2="209.1"/>
	<line class="st0" x1="483" y1="246.2" x2="483" y2="209.3"/>
	<line class="st0" x1="479.4" y1="285.7" x2="479.4" y2="213.6"/>
	<line class="st0" x1="504.2" y1="291.9" x2="504.2" y2="254.9"/>
	<line class="st0" x1="497.1" y1="291.9" x2="497.1" y2="254.9"/>
	<line class="st0" x1="511.3" y1="291.9" x2="511.3" y2="254.9"/>
	<line class="st0" x1="490" y1="291.9" x2="490" y2="254.9"/>
	<line class="st0" x1="483" y1="292.1" x2="483" y2="255.2"/>
	<line class="st0" x1="536" y1="285.7" x2="536" y2="213.6"/>
	<line class="st0" x1="529" y1="285.7" x2="529" y2="213.6"/>
	<line class="st0" x1="521.9" y1="285.7" x2="521.9" y2="213.6"/>
	<line class="st0" x1="543.1" y1="285.7" x2="543.1" y2="213.6"/>
	<line class="st0" x1="514.8" y1="285.7" x2="514.8" y2="213.6"/>
	<line class="st0" x1="532.5" y1="245.9" x2="532.5" y2="209.1"/>
	<line class="st0" x1="525.4" y1="245.9" x2="525.4" y2="209.1"/>
	<line class="st0" x1="539.6" y1="245.9" x2="539.6" y2="209.1"/>
	<line class="st0" x1="518.3" y1="245.9" x2="518.3" y2="209.1"/>
	<line class="st0" x1="532.5" y1="291.9" x2="532.5" y2="254.9"/>
	<line class="st0" x1="525.4" y1="291.9" x2="525.4" y2="254.9"/>
	<line class="st0" x1="539.6" y1="291.9" x2="539.6" y2="254.9"/>
	<line class="st0" x1="518.3" y1="291.9" x2="518.3" y2="254.9"/>
	<line class="st0" x1="550.2" y1="285.7" x2="550.2" y2="213.6"/>
	<line class="st0" x1="553.7" y1="245.9" x2="553.7" y2="209.1"/>
	<line class="st0" x1="546.7" y1="245.9" x2="546.7" y2="209.1"/>
	<line class="st0" x1="553.7" y1="291.9" x2="553.7" y2="254.9"/>
	<line class="st0" x1="546.7" y1="291.9" x2="546.7" y2="254.9"/>
	<line class="st0" x1="578.5" y1="285.7" x2="578.5" y2="213.6"/>
	<line class="st0" x1="571.4" y1="285.7" x2="571.4" y2="213.6"/>
	<line class="st0" x1="564.4" y1="285.7" x2="564.4" y2="213.6"/>
	<line class="st0" x1="585.6" y1="285.7" x2="585.6" y2="213.6"/>
	<line class="st0" x1="557.3" y1="285.7" x2="557.3" y2="213.6"/>
	<line class="st0" x1="575" y1="245.9" x2="575" y2="209.1"/>
	<line class="st0" x1="567.9" y1="245.9" x2="567.9" y2="209.1"/>
	<line class="st0" x1="589.1" y1="245.9" x2="589.1" y2="209.1"/>
	<line class="st0" x1="582.1" y1="245.9" x2="582.1" y2="209.1"/>
	<line class="st0" x1="560.8" y1="245.9" x2="560.8" y2="209.1"/>
	<line class="st0" x1="575" y1="291.9" x2="575" y2="254.9"/>
	<line class="st0" x1="567.9" y1="291.9" x2="567.9" y2="254.9"/>
	<line class="st0" x1="589.1" y1="291.9" x2="589.1" y2="254.9"/>
	<line class="st0" x1="582.1" y1="291.9" x2="582.1" y2="254.9"/>
	<line class="st0" x1="560.8" y1="291.9" x2="560.8" y2="254.9"/>
	<line class="st0" x1="599.8" y1="285.7" x2="599.8" y2="213.6"/>
	<line class="st0" x1="592.7" y1="285.7" x2="592.7" y2="213.6"/>
	<line class="st0" x1="603.3" y1="245.9" x2="603.3" y2="209.1"/>
	<line class="st0" x1="596.2" y1="245.9" x2="596.2" y2="209.1"/>
	<line class="st0" x1="603.3" y1="291.9" x2="603.3" y2="254.9"/>
	<line class="st0" x1="596.2" y1="291.9" x2="596.2" y2="254.9"/>
	<line class="st0" x1="621" y1="285.7" x2="621" y2="213.6"/>
	<line class="st0" x1="613.9" y1="285.7" x2="613.9" y2="213.6"/>
	<line class="st0" x1="624.5" y1="245.9" x2="624.5" y2="209.1"/>
	<line class="st0" x1="617.5" y1="245.9" x2="617.5" y2="209.1"/>
	<line class="st0" x1="610.4" y1="246.2" x2="610.4" y2="209.3"/>
	<line class="st0" x1="606.8" y1="285.7" x2="606.8" y2="213.6"/>
	<line class="st0" x1="624.5" y1="291.9" x2="624.5" y2="254.9"/>
	<line class="st0" x1="617.5" y1="291.9" x2="617.5" y2="254.9"/>
	<line class="st0" x1="610.4" y1="292.1" x2="610.4" y2="255.2"/>
</g>
<g id="Body">
	<g id="LWPOLYLINE">
		<path class="st0" d="M75.5,124.7h47.3c7.8,0.2,14,6.7,13.8,14.6c-0.2,7.5-6.3,13.6-13.8,13.8H75.5c-7.8-0.2-14-6.7-13.8-14.6
			C61.9,131,68,124.9,75.5,124.7z"/>
	</g>
	<g id="LWPOLYLINE-2">
		<rect x="107.7" y="95.2" class="st0" width="52.6" height="8.1"/>
	</g>
	<g id="LWPOLYLINE-3">
		<rect x="38.2" y="95.2" class="st0" width="52.6" height="8.1"/>
	</g>
	<g id="CIRCLE">
		<path class="st0" d="M134.6,59.5c0-2.4,1.9-4.3,4.3-4.3s4.3,1.9,4.3,4.3c0,2.4-1.9,4.3-4.3,4.3h0
			C136.5,63.8,134.6,61.9,134.6,59.5z"/>
	</g>
	<g id="CIRCLE-2">
		<path class="st0" d="M147.4,59.5c0-1.6,1.3-2.8,2.8-2.8c1.6,0,2.8,1.3,2.8,2.8c0,1.6-1.3,2.8-2.8,2.8c0,0,0,0,0,0
			C148.7,62.4,147.4,61.1,147.4,59.5C147.4,59.5,147.4,59.5,147.4,59.5z"/>
	</g>
	<g id="CIRCLE-3">
		<path class="st0" d="M119.1,59.5c0-3.1,2.5-5.7,5.7-5.7s5.7,2.5,5.7,5.7s-2.5,5.7-5.7,5.7l0,0C121.6,65.2,119.1,62.7,119.1,59.5z"
			/>
	</g>
	<g id="LWPOLYLINE-4">
		<path class="st0" d="M107.7,52.4c3.9-0.1,7.2,2.9,7.4,6.8c0.1,3.9-2.9,7.2-6.8,7.4c-0.2,0-0.4,0-0.5,0h-17
			c-3.9,0.1-7.2-2.9-7.4-6.8c-0.1-3.9,2.9-7.2,6.8-7.4c0.2,0,0.4,0,0.5,0H107.7z"/>
	</g>
	<g id="CIRCLE-4">
		<path class="st0" d="M55.3,59.5c0-2.4,1.9-4.3,4.3-4.3s4.3,1.9,4.3,4.3c0,2.4-1.9,4.3-4.3,4.3c0,0,0,0,0,0
			C57.2,63.8,55.3,61.9,55.3,59.5z"/>
	</g>
	<g id="CIRCLE-5">
		<path class="st0" d="M45.3,59.5c0-1.6,1.3-2.8,2.8-2.8c1.6,0,2.8,1.3,2.8,2.8c0,1.6-1.3,2.8-2.8,2.8h0
			C46.6,62.4,45.4,61.1,45.3,59.5z"/>
	</g>
	<g id="CIRCLE-6">
		<path class="st0" d="M68,59.5c0-3.1,2.5-5.7,5.7-5.7s5.7,2.5,5.7,5.7c0,3.1-2.5,5.7-5.7,5.7l0,0C70.5,65.2,68,62.7,68,59.5z"/>
	</g>
	<g id="CIRCLE-7">
		<path class="st0" d="M18.3,99.2c0-2.6,2.1-4.7,4.7-4.7c2.6,0,4.7,2.1,4.7,4.7c0,2.6-2.1,4.7-4.7,4.7c0,0,0,0,0,0
			C20.4,103.9,18.3,101.8,18.3,99.2z"/>
	</g>
	<g id="CIRCLE-8">
		<path class="st0" d="M170.8,99.2c0-2.6,2.1-4.7,4.7-4.7s4.7,2.1,4.7,4.7s-2.1,4.7-4.7,4.7h0C172.9,103.9,170.8,101.8,170.8,99.2z"
			/>
	</g>
	<g id="CIRCLE-9">
		<path class="st0" d="M0,99.2C0,44.4,44.4,0,99.2,0s99.2,44.4,99.2,99.2s-44.4,99.2-99.2,99.2S0,154,0,99.2C0,99.2,0,99.2,0,99.2z"
			/>
	</g>
	<g id="LWPOLYLINE-5">
		<rect x="313.2" y="139.9" class="st0" width="8.5" height="8.5"/>
	</g>
	<g id="LWPOLYLINE-6">
		<rect x="282" y="139.9" class="st0" width="8.5" height="8.5"/>
	</g>
	<g id="LWPOLYLINE-7">
		<rect x="284.9" y="20.8" class="st0" width="34" height="34"/>
	</g>
	<g id="LWPOLYLINE-8">
		<path class="st0" d="M351.5,76.3c5.3,3.9,6.5,11.4,2.6,16.8c-3.9,5.3-11.4,6.5-16.8,2.6s-6.5-11.4-2.6-16.8c0.7-1,1.6-1.9,2.6-2.6
			v-9.4c0-3.9,3.2-7.1,7.1-7.1c3.9,0,7.1,3.2,7.1,7.1c0,0,0,0,0,0V76.3z"/>
	</g>
	<g id="LWPOLYLINE-9">
		<path class="st0" d="M252.3,66.9c0-3.9,3.2-7.1,7.1-7.1c3.9,0,7.1,3.2,7.1,7.1c0,0,0,0,0,0v9.4c5.3,3.9,6.5,11.4,2.6,16.8
			c-3.9,5.3-11.4,6.5-16.8,2.6s-6.5-11.4-2.6-16.8c0.7-1,1.6-1.9,2.6-2.6V66.9z"/>
	</g>
	<g id="LWPOLYLINE-10">
		<path class="st0" d="M294.8,177.1c0-3.9,3.2-7.1,7.1-7.1c3.9,0,7.1,3.2,7.1,7.1v22c54.7-3.9,95.8-51.4,91.9-106
			c-3.9-54.7-51.4-95.8-106-91.9c-54.7,3.9-95.8,51.4-91.9,106c3.5,49.2,42.7,88.3,91.9,91.9V177.1z"/>
	</g>
	<g id="CIRCLE-10">
		<path class="st0" d="M221,100.2c0-2.6,2.1-4.7,4.7-4.7c2.6,0,4.7,2.1,4.7,4.7c0,2.6-2.1,4.7-4.7,4.7c0,0,0,0,0,0
			C223.1,104.9,221,102.8,221,100.2z"/>
	</g>
	<g id="CIRCLE-11">
		<path class="st0" d="M373.5,100.2c0-2.6,2.1-4.7,4.7-4.7s4.7,2.1,4.7,4.7c0,2.6-2.1,4.7-4.7,4.7l0,0
			C375.6,104.9,373.5,102.8,373.5,100.2z"/>
	</g>
	<g id="LWPOLYLINE-11">
		<path class="st0" d="M413.8,121.2c-0.7-2.7,0.7-5.6,3.3-6.7c8-3.3,11.7-12.4,8.4-20.4c-1.6-3.8-4.6-6.8-8.4-8.4
			c-2.6-1.1-4-3.9-3.3-6.6c11.6-44.9,57.5-72,102.4-60.3c29.6,7.6,52.7,30.8,60.3,60.3c0.7,2.7-0.7,5.6-3.3,6.6
			c-8,3.3-11.7,12.4-8.4,20.4c1.6,3.8,4.6,6.8,8.4,8.4c2.6,1.1,4,3.9,3.3,6.7c-11.6,44.9-57.5,72-102.4,60.3
			C444.6,173.9,421.4,150.8,413.8,121.2z"/>
	</g>
	<g id="CIRCLE-12">
		<path class="st0" d="M415,100.2c0-2.2,1.8-4,4-4s4,1.8,4,4s-1.8,4-4,4S415,102.4,415,100.2z"/>
	</g>
	<g id="CIRCLE-13">
		<path class="st0" d="M567.5,100.2c0-2.2,1.8-4,4-4s4,1.8,4,4s-1.8,4-4,4S567.5,102.4,567.5,100.2z"/>
	</g>
	<g id="CIRCLE-14">
		<path class="st0" d="M404,100.2C404,49.8,444.8,9,495.1,9s91.1,40.8,91.1,91.1s-40.8,91.2-91.1,91.2l0,0
			C444.8,191.3,404,150.5,404,100.2z"/>
	</g>
	<g id="LWPOLYLINE-12">
		<path class="st0" d="M601,120.3c-0.7-2.7,0.7-5.6,3.3-6.7c8-3.3,11.7-12.4,8.4-20.4c-1.6-3.8-4.6-6.8-8.4-8.4
			c-2.6-1.1-4-3.9-3.3-6.6c11.6-44.9,57.5-72,102.4-60.3c29.6,7.6,52.7,30.8,60.3,60.3c0.7,2.7-0.7,5.6-3.3,6.6
			c-8,3.3-11.7,12.4-8.4,20.4c1.6,3.8,4.6,6.8,8.4,8.4c2.6,1.1,4,3.9,3.3,6.7c-11.6,44.9-57.5,72-102.4,60.3
			C631.8,173,608.7,149.9,601,120.3z"/>
	</g>
	<g id="CIRCLE-15">
		<path class="st0" d="M602.2,99.2c0-2.2,1.8-4,4-4s4,1.8,4,4s-1.8,4-4,4S602.2,101.4,602.2,99.2z"/>
	</g>
	<g id="CIRCLE-16">
		<path class="st0" d="M754.7,99.2c0-2.2,1.8-4,4-4s4,1.8,4,4s-1.8,4-4,4S754.7,101.4,754.7,99.2z"/>
	</g>
	<g id="CIRCLE-17">
		<path class="st0" d="M591.3,99.2c0-50.3,40.8-91.1,91.2-91.1s91.1,40.8,91.1,91.1s-40.8,91.2-91.1,91.2S591.3,149.6,591.3,99.2
			C591.3,99.2,591.3,99.2,591.3,99.2L591.3,99.2z"/>
	</g>
	<g id="LWPOLYLINE-13">
		<path class="st0" d="M700.7,20.7c0-0.3,0-0.5,0.1-0.7c0.4-1.5,2-2.4,3.5-2c0,0,0,0,0,0c29.3,7.8,52,30.8,59.6,60.2
			c0.7,2.7-0.7,5.6-3.3,6.6c-8,3.3-11.7,12.4-8.4,20.4c1.6,3.8,4.6,6.8,8.4,8.4c2.6,1.1,4,3.9,3.3,6.6
			c-11.6,44.9-57.5,72-102.4,60.3c-29.6-7.6-52.7-30.8-60.3-60.3c-0.7-2.7,0.7-5.6,3.3-6.6c8-3.3,11.7-12.4,8.4-20.4
			c-1.6-3.8-4.6-6.8-8.4-8.4c-2.6-1.1-4-3.9-3.3-6.6c7.6-29.3,30.4-52.3,59.6-60.1c0.2-0.1,0.5-0.1,0.7-0.1c1.6,0,2.8,1.3,2.8,2.8v1
			c0,3.1,2.5,5.7,5.7,5.7c3.1,0,5.7-2.5,5.7-5.7v-3.7c0-1.5,1.2-2.8,2.7-2.8c2.8-0.1,5.6-0.1,8.3,0c1.5,0.1,2.7,1.3,2.7,2.8v3.7
			c0,3.1,2.5,5.7,5.7,5.7c3.1,0,5.7-2.5,5.7-5.7L700.7,20.7z"/>
	</g>
	<g id="CIRCLE-18">
		<path class="st0" d="M707.5,52.6c0-2,1.6-3.5,3.5-3.5c2,0,3.6,1.6,3.5,3.6c0,2-1.6,3.6-3.5,3.5c0,0,0,0,0,0
			C709.1,56.2,707.5,54.6,707.5,52.6z"/>
	</g>
	<g id="CIRCLE-19">
		<path class="st0" d="M650.4,52.6c0-2,1.6-3.6,3.5-3.6c2,0,3.5,1.6,3.5,3.6c0,2-1.6,3.6-3.5,3.6l0,0
			C651.9,56.2,650.4,54.6,650.4,52.6z"/>
	</g>
	<g id="CIRCLE-20">
		<path class="st0" d="M707.5,145.7c0-2,1.6-3.5,3.5-3.5c2,0,3.5,1.6,3.5,3.5s-1.6,3.5-3.5,3.5c0,0,0,0,0,0
			C709.1,149.3,707.5,147.7,707.5,145.7z"/>
	</g>
	<g id="CIRCLE-21">
		<path class="st0" d="M650.4,145.7c0-2,1.6-3.6,3.5-3.6s3.5,1.6,3.5,3.5c0,2-1.6,3.6-3.5,3.6l0,0
			C651.9,149.3,650.4,147.7,650.4,145.7z"/>
	</g>
	<g id="CIRCLE-22">
		<path class="st0" d="M736.1,99.2c0-2,1.6-3.6,3.5-3.6c2,0,3.5,1.6,3.5,3.6c0,2-1.6,3.6-3.5,3.6l0,0
			C737.6,102.7,736.1,101.1,736.1,99.2z"/>
	</g>
	<g id="LWPOLYLINE-14">
		<rect x="678.5" y="38.1" class="st0" width="8.1" height="52.6"/>
	</g>
	<g id="LWPOLYLINE-15">
		<rect x="678.5" y="107.7" class="st0" width="8.1" height="52.6"/>
	</g>
	<g id="LINE">
		<line class="st0" x1="500" y1="183.2" x2="489.1" y2="183.2"/>
	</g>
	<g id="LINE-2">
		<line class="st0" x1="500" y1="161.2" x2="500" y2="183.2"/>
	</g>
	<g id="LINE-3">
		<line class="st0" x1="508" y1="161.2" x2="500" y2="161.2"/>
	</g>
	<g id="LINE-4">
		<line class="st0" x1="508" y1="108.7" x2="508" y2="161.2"/>
	</g>
	<g id="LINE-5">
		<line class="st0" x1="500" y1="108.7" x2="508" y2="108.7"/>
	</g>
	<g id="LINE-6">
		<line class="st0" x1="500" y1="91.6" x2="500" y2="108.7"/>
	</g>
	<g id="LINE-7">
		<line class="st0" x1="508" y1="91.6" x2="500" y2="91.6"/>
	</g>
	<g id="LINE-8">
		<line class="st0" x1="508" y1="39.1" x2="508" y2="91.6"/>
	</g>
	<g id="LINE-9">
		<line class="st0" x1="500" y1="39.1" x2="508" y2="39.1"/>
	</g>
	<g id="LINE-10">
		<line class="st0" x1="500" y1="17.1" x2="500" y2="39.1"/>
	</g>
	<g id="LINE-11">
		<line class="st0" x1="489.1" y1="17.1" x2="500" y2="17.1"/>
	</g>
	<g id="LINE-12">
		<line class="st0" x1="471.2" y1="31.7" x2="471.2" y2="27.7"/>
	</g>
	<g id="LINE-13">
		<line class="st0" x1="463.1" y1="31.7" x2="471.2" y2="31.7"/>
	</g>
	<g id="LINE-14">
		<line class="st0" x1="463.1" y1="39.1" x2="463.1" y2="31.7"/>
	</g>
	<g id="LINE-15">
		<line class="st0" x1="455.1" y1="39.1" x2="463.1" y2="39.1"/>
	</g>
	<g id="LINE-16">
		<line class="st0" x1="455.1" y1="91.6" x2="455.1" y2="39.1"/>
	</g>
	<g id="LINE-17">
		<line class="st0" x1="463.1" y1="91.6" x2="455.1" y2="91.6"/>
	</g>
	<g id="LINE-18">
		<line class="st0" x1="463.1" y1="108.7" x2="463.1" y2="91.6"/>
	</g>
	<g id="LINE-19">
		<line class="st0" x1="455.1" y1="108.7" x2="463.1" y2="108.7"/>
	</g>
	<g id="LINE-20">
		<line class="st0" x1="455.1" y1="161.2" x2="455.1" y2="108.7"/>
	</g>
	<g id="LINE-21">
		<line class="st0" x1="463.1" y1="161.2" x2="455.1" y2="161.2"/>
	</g>
	<g id="LINE-22">
		<line class="st0" x1="463.1" y1="168.6" x2="463.1" y2="161.2"/>
	</g>
	<g id="LINE-23">
		<line class="st0" x1="471.2" y1="168.6" x2="463.1" y2="168.6"/>
	</g>
	<g id="LINE-24">
		<line class="st0" x1="471.2" y1="172.6" x2="471.2" y2="168.6"/>
	</g>
	<g id="LINE-25">
		<line class="st0" x1="489.1" y1="172.6" x2="471.2" y2="172.6"/>
	</g>
	<g id="LINE-26">
		<line class="st0" x1="489.1" y1="183.2" x2="489.1" y2="172.6"/>
	</g>
	<g id="LINE-27">
		<line class="st0" x1="489.1" y1="27.7" x2="489.1" y2="17.1"/>
	</g>
	<g id="LINE-28">
		<line class="st0" x1="471.2" y1="27.7" x2="489.1" y2="27.7"/>
	</g>
</g>
<g id="Diffuser">
	<path class="st0" d="M719.5,234.9h-47.3c-8.1,0-14.7,6.6-14.7,14.7c0,8.1,6.6,14.7,14.7,14.7h47.3c8.1,0,14.7-6.6,14.7-14.7
		C734.3,241.5,727.7,234.9,719.5,234.9z"/>
</g>
</svg>
